<svg data-v-0dd9719b="" version="1.0" xmlns="http://www.w3.org/2000/svg" xmlns:xlink="http://www.w3.org/1999/xlink" width="100%" height="100%" viewBox="0 0 340.000000 250.000000" preserveAspectRatio="xMidYMid meet" color-interpolation-filters="sRGB" style="margin: auto;"> 
<rect data-v-0dd9719b="" x="0" y="0" width="100%" height="100%" fill="transparent" fill-opacity="1" class="background"></rect> <!----> <g data-v-0dd9719b="" fill="#feffff" class="iconbordersvg" transform="translate(62.518882751464844,88.99699783325195)"><g data-gra="graph-icon-name"><g><rect data-gra="graph-name-bg" stroke-width="2" class="i-icon-bg" x="0" y="0" width="214.9622344970703" height="72.0060043334961" fill-opacity="0" stroke="rgb(254, 255, 255)"></rect> <!----> <!----> </g> <g transform="translate(0,0)"><g hollow-target="black" data-gra="graph-icon" transform="translate(0,0)" mask="url(#cbb95116-1dea-4520-b9b5-57874b4c60f2)"><g><rect data-gra="graph-name-bg" stroke-width="2" class="i-icon-bg" x="0" y="0" width="49.83222961425781" height="72.0060043334961" fill-opacity="1"></rect> <!----> <!----> </g> <g transform="translate(5,12.995615005493164)"><g class="iconsvg-imagesvg"><g><!----> <svg filter="url(#colors3299313967)" x="0" y="0" width="39.832228385874714" height="46.014773330570115" filtersec="colorsb4496554443" class="image-svg-svg primary" style="overflow: visible;"><svg xmlns="http://www.w3.org/2000/svg" viewBox="0 0.2999999999999998 76.8 88.10001"><path d="M2 23.3l36.4-21 36.4 21v42l-36.4 21L2 65.4V23.3zm9.4 47.5l27 15.6 27-15.6V39.7l-27-15.6-27 15.6v31.1zm8.8 5.1l18.2 10.5 18.2-10.5v-21L38.4 44.5 20.2 54.9v21z" fill="none" stroke="#202121" stroke-width="4" stroke-miterlimit="10"></path></svg></svg> <defs><filter id="colors3299313967"><feColorMatrix type="matrix" values="0 0 0 0 0.9921875  0 0 0 0 0.99609375  0 0 0 0 0.99609375  0 0 0 1 0" class="icon-fecolormatrix"></feColorMatrix></filter> <filter id="colorsf4007171575"><feColorMatrix type="matrix" values="0 0 0 0 0.99609375  0 0 0 0 0.99609375  0 0 0 0 0.99609375  0 0 0 1 0" class="icon-fecolormatrix"></feColorMatrix></filter> <filter id="colorsb4496554443"><feColorMatrix type="matrix" values="0 0 0 0 0  0 0 0 0 0  0 0 0 0 0  0 0 0 1 0" class="icon-fecolormatrix"></feColorMatrix></filter></defs></g></g></g></g> <g data-gra="graph-name" transform="translate(49.83222961425781,0)"><g><rect data-gra="graph-name-bg" stroke-width="2" class="i-icon-bg" x="0" y="0" width="165.1300048828125" height="72.0060043334961" fill-opacity="0"></rect> <!----> <!----> </g> <g transform="translate(5,5)"><g data-gra="path-name" fill-rule="" class="tp-name" transform="translate(0,0)"><g transform="scale(1)"><g><path d="M27.43 0L4.12 0 4.12-34.43 26.24-34.43 26.24-29.12 10.39-29.12 10.39-20.62 24.5-20.62 24.5-15.4 10.39-15.4 10.39-5.32 27.43-5.32 27.43 0ZM32.05-10.34L32.05-32.84 38.06-33.84 38.06-25.99 47.3-25.99 47.3-20.97 38.06-20.97 38.06-10.39Q38.06-7.25 39.06-5.91 40.05-4.57 42.43-4.57L42.43-4.57Q44.07-4.57 45.34-4.92 46.61-5.27 47.35-5.57L47.35-5.57 48.35-0.8Q47.3-0.35 45.61 0.12 43.93 0.6 41.64 0.6L41.64 0.6Q38.86 0.6 36.99-0.15 35.13-0.89 34.04-2.31 32.94-3.73 32.5-5.74 32.05-7.75 32.05-10.34L32.05-10.34ZM59.13 0L53.12 0 53.12-37.57 59.13-38.56 59.13-25.69Q60.12-26.04 61.44-26.29 62.76-26.53 64.05-26.53L64.05-26.53Q67.18-26.53 69.24-25.66 71.3-24.8 72.55-23.23 73.79-21.66 74.31-19.48 74.83-17.29 74.83-14.61L74.83-14.61 74.83 0 68.82 0 68.82-13.66Q68.82-15.75 68.55-17.22 68.27-18.68 67.65-19.6 67.03-20.52 65.99-20.94 64.94-21.37 63.4-21.37L63.4-21.37Q62.21-21.37 60.97-21.12 59.73-20.87 59.13-20.67L59.13-20.67 59.13 0ZM92.07-34.78L92.07-34.78Q99.58-34.78 103.58-32.05 107.58-29.32 107.58-23.5L107.58-23.5Q107.58-20.47 106.51-18.31 105.44-16.15 103.4-14.78 101.37-13.42 98.43-12.77 95.5-12.12 91.73-12.12L91.73-12.12 88.6-12.12 88.6 0 82.34 0 82.34-33.94Q84.52-34.43 87.18-34.61 89.84-34.78 92.07-34.78ZM92.52-29.37L92.52-29.37Q90.14-29.37 88.6-29.22L88.6-29.22 88.6-17.49 91.63-17.49Q96.15-17.49 98.58-18.76 101.02-20.02 101.02-23.55L101.02-23.55Q101.02-25.24 100.37-26.39 99.73-27.53 98.58-28.17 97.44-28.82 95.88-29.09 94.31-29.37 92.52-29.37ZM121.29-4.22L121.29-4.22Q124.07-4.22 125.52-4.52L125.52-4.52 125.52-11.18Q125.02-11.33 124.07-11.48 123.13-11.63 121.99-11.63L121.99-11.63Q120.99-11.63 119.98-11.48 118.96-11.33 118.14-10.93 117.32-10.53 116.82-9.81 116.32-9.09 116.32-8L116.32-8Q116.32-5.86 117.66-5.04 119.01-4.22 121.29-4.22ZM120.8-26.63L120.8-26.63Q123.78-26.63 125.81-25.89 127.85-25.14 129.07-23.8 130.29-22.46 130.81-20.55 131.33-18.63 131.33-16.35L131.33-16.35 131.33-0.6Q129.94-0.3 127.13 0.12 124.32 0.55 120.8 0.55L120.8 0.55Q118.46 0.55 116.52 0.1 114.58-0.35 113.22-1.34 111.85-2.34 111.08-3.93 110.31-5.52 110.31-7.85L110.31-7.85Q110.31-10.09 111.18-11.63 112.05-13.17 113.54-14.14 115.03-15.11 116.99-15.53 118.96-15.95 121.09-15.95L121.09-15.95Q122.09-15.95 123.18-15.83 124.27-15.7 125.52-15.4L125.52-15.4 125.52-16.4Q125.52-17.44 125.27-18.39 125.02-19.33 124.4-20.05 123.78-20.77 122.76-21.17 121.74-21.57 120.2-21.57L120.2-21.57Q118.11-21.57 116.37-21.27 114.63-20.97 113.54-20.57L113.54-20.57 112.8-25.44Q113.94-25.84 116.12-26.24 118.31-26.63 120.8-26.63ZM153.04-25.99L159.25-25.99Q155.23-11.18 149.91 0.84L149.91 0.84Q148.92 3.08 147.88 4.67 146.83 6.26 145.54 7.3 144.25 8.35 142.66 8.82 141.07 9.29 138.98 9.29L138.98 9.29Q137.59 9.29 136.22 8.99 134.86 8.7 134.16 8.35L134.16 8.35 135.25 3.53Q137.04 4.22 138.78 4.22L138.78 4.22Q141.12 4.22 142.43 3.11 143.75 1.99 144.75-0.35L144.75-0.35Q141.91-5.81 139.3-12.27 136.7-18.73 134.66-25.99L134.66-25.99 141.07-25.99Q141.57-23.9 142.29-21.47 143.01-19.03 143.85-16.52 144.7-14.01 145.64-11.53 146.58-9.04 147.53-6.91L147.53-6.91Q149.12-11.33 150.51-16.32 151.9-21.32 153.04-25.99L153.04-25.99Z" transform="translate(-4.119999885559082, 38.560001373291016)"></path></g> <!----> <!----> <!----> <!----> <!----> <!----> <!----></g></g> <g data-gra="path-slogan" fill-rule="" class="tp-slogan" fill="#feffff" transform="translate(12.615005493164062,53.850006103515625)"><!----> <!----> <g transform="scale(1, 1)"><g transform="scale(1)"><path d="M1.08-7.87L1.08 0L2.08 0L2.08-3.12L3.49-3.12C3.92-3.12 4.32-3.17 4.67-3.27C5.03-3.37 5.34-3.52 5.59-3.72C5.85-3.92 6.05-4.17 6.19-4.48C6.33-4.78 6.40-5.14 6.40-5.56C6.40-5.99 6.33-6.35 6.19-6.65C6.05-6.94 5.85-7.18 5.60-7.36C5.35-7.54 5.04-7.67 4.68-7.75C4.32-7.83 3.92-7.87 3.49-7.87ZM3.37-3.94L2.08-3.94L2.08-7.07L3.37-7.07C4.05-7.07 4.56-6.96 4.90-6.74C5.23-6.52 5.40-6.12 5.40-5.56C5.40-5.00 5.23-4.59 4.90-4.33C4.57-4.07 4.06-3.94 3.37-3.94ZM10.74-3.20L8.38-3.20L8.75-4.40C8.89-4.84 9.03-5.28 9.16-5.72C9.28-6.15 9.41-6.60 9.53-7.06L9.58-7.06C9.70-6.60 9.83-6.15 9.96-5.72C10.09-5.28 10.22-4.84 10.37-4.40ZM10.99-2.40L11.74 0L12.80 0L10.14-7.87L9.01-7.87L6.35 0L7.37 0L8.12-2.40ZM15.02-3.05L15.02 0L16.03 0L16.03-3.05L18.40-7.87L17.35-7.87L16.34-5.65C16.22-5.36 16.10-5.08 15.96-4.80C15.82-4.52 15.69-4.23 15.55-3.94L15.50-3.94C15.37-4.23 15.24-4.52 15.12-4.80C15-5.08 14.88-5.36 14.75-5.65L13.73-7.87L12.66-7.87ZM23.52-7.03L23.52 0L24.53 0L24.53-7.03L26.90-7.03L26.90-7.87L21.14-7.87L21.14-7.03ZM28.32-7.87L28.32 0L29.32 0L29.32-3.71L32.98-3.71L32.98 0L33.98 0L33.98-7.87L32.98-7.87L32.98-4.57L29.32-4.57L29.32-7.87ZM37.14-4.14L37.14-7.07L38.46-7.07C39.08-7.07 39.55-6.96 39.88-6.76C40.20-6.55 40.37-6.18 40.37-5.66C40.37-5.15 40.20-4.77 39.88-4.52C39.55-4.27 39.08-4.14 38.46-4.14ZM40.46 0L41.59 0L39.60-3.43C40.14-3.57 40.56-3.82 40.88-4.19C41.20-4.56 41.36-5.05 41.36-5.66C41.36-6.07 41.30-6.42 41.16-6.70C41.02-6.98 40.83-7.20 40.59-7.38C40.35-7.56 40.05-7.68 39.71-7.76C39.37-7.83 39.00-7.87 38.60-7.87L36.14-7.87L36.14 0L37.14 0L37.14-3.32L38.57-3.32ZM46.02 0.14C46.52 0.14 46.97 0.05 47.38-0.14C47.79-0.34 48.15-0.61 48.45-0.97C48.75-1.32 48.98-1.75 49.15-2.26C49.31-2.77 49.39-3.34 49.39-3.97C49.39-4.60 49.31-5.16 49.15-5.66C48.98-6.16 48.75-6.58 48.45-6.93C48.15-7.28 47.79-7.55 47.38-7.73C46.97-7.92 46.52-8.02 46.02-8.02C45.52-8.02 45.07-7.92 44.66-7.74C44.25-7.56 43.89-7.29 43.60-6.94C43.30-6.59 43.07-6.17 42.91-5.67C42.74-5.17 42.66-4.60 42.66-3.97C42.66-3.34 42.74-2.77 42.91-2.26C43.07-1.75 43.30-1.32 43.60-0.97C43.89-0.61 44.25-0.34 44.66-0.14C45.07 0.05 45.52 0.14 46.02 0.14ZM46.02-0.73C45.67-0.73 45.35-0.81 45.07-0.96C44.78-1.11 44.54-1.33 44.33-1.61C44.13-1.90 43.97-2.24 43.86-2.63C43.75-3.03 43.69-3.48 43.69-3.97C43.69-4.46 43.75-4.90 43.86-5.29C43.97-5.68 44.13-6.02 44.33-6.29C44.54-6.56 44.78-6.77 45.07-6.92C45.35-7.07 45.67-7.14 46.02-7.14C46.37-7.14 46.69-7.07 46.97-6.92C47.26-6.77 47.50-6.56 47.71-6.29C47.91-6.02 48.07-5.68 48.18-5.29C48.29-4.90 48.35-4.46 48.35-3.97C48.35-3.48 48.29-3.03 48.18-2.63C48.07-2.24 47.91-1.90 47.71-1.61C47.50-1.33 47.26-1.11 46.97-0.96C46.69-0.81 46.37-0.73 46.02-0.73ZM51.05-7.87L51.05-3.25C51.05-2.62 51.12-2.09 51.26-1.66C51.41-1.22 51.61-0.87 51.86-0.61C52.11-0.34 52.41-0.15 52.76-0.03C53.11 0.09 53.48 0.14 53.88 0.14C54.28 0.14 54.65 0.09 55.00-0.03C55.34-0.15 55.64-0.34 55.89-0.61C56.14-0.87 56.34-1.22 56.48-1.66C56.63-2.09 56.70-2.62 56.70-3.25L56.70-7.87L55.74-7.87L55.74-3.23C55.74-2.76 55.69-2.36 55.60-2.04C55.50-1.72 55.37-1.46 55.20-1.27C55.03-1.08 54.84-0.94 54.61-0.86C54.39-0.77 54.14-0.73 53.88-0.73C53.62-0.73 53.38-0.77 53.16-0.86C52.94-0.94 52.74-1.08 52.58-1.27C52.41-1.46 52.28-1.72 52.19-2.04C52.09-2.36 52.04-2.76 52.04-3.23L52.04-7.87ZM58.37-3.94C58.37-3.30 58.46-2.72 58.63-2.21C58.81-1.71 59.05-1.28 59.36-0.93C59.68-0.58 60.05-0.32 60.48-0.13C60.91 0.05 61.39 0.14 61.91 0.14C62.44 0.14 62.91 0.06 63.33-0.11C63.75-0.29 64.09-0.50 64.34-0.77L64.34-4.08L61.76-4.08L61.76-3.25L63.43-3.25L63.43-1.20C63.27-1.06 63.07-0.94 62.81-0.86C62.56-0.77 62.30-0.73 62.02-0.73C61.59-0.73 61.22-0.81 60.89-0.96C60.57-1.11 60.30-1.33 60.08-1.61C59.86-1.89 59.69-2.23 59.57-2.62C59.46-3.02 59.40-3.46 59.40-3.96C59.40-4.45 59.46-4.89 59.59-5.28C59.71-5.67 59.88-6.01 60.11-6.28C60.33-6.56 60.60-6.77 60.92-6.92C61.24-7.07 61.60-7.14 62.00-7.14C62.40-7.14 62.73-7.07 62.99-6.93C63.25-6.79 63.48-6.62 63.68-6.41L64.25-7.04C64.02-7.28 63.72-7.51 63.35-7.71C62.99-7.91 62.54-8.02 61.99-8.02C61.46-8.02 60.98-7.92 60.54-7.73C60.10-7.55 59.72-7.28 59.39-6.92C59.07-6.57 58.82-6.14 58.64-5.64C58.46-5.14 58.37-4.57 58.37-3.94ZM66.23-7.87L66.23 0L67.22 0L67.22-3.71L70.88-3.71L70.88 0L71.89 0L71.89-7.87L70.88-7.87L70.88-4.57L67.22-4.57L67.22-7.87ZM76.48-7.87L76.48 0L81.13 0L81.13-0.85L77.47-0.85L77.47-3.71L80.46-3.71L80.46-4.56L77.47-4.56L77.47-7.03L81.01-7.03L81.01-7.87ZM84.43-7.03L84.43 0L85.44 0L85.44-7.03L87.82-7.03L87.82-7.87L82.06-7.87L82.06-7.03ZM89.23-7.87L89.23 0L90.23 0L90.23-3.71L93.89-3.71L93.89 0L94.90 0L94.90-7.87L93.89-7.87L93.89-4.57L90.23-4.57L90.23-7.87ZM97.06-7.87L97.06 0L101.71 0L101.71-0.85L98.05-0.85L98.05-3.71L101.04-3.71L101.04-4.56L98.05-4.56L98.05-7.03L101.59-7.03L101.59-7.87ZM104.38-4.14L104.38-7.07L105.70-7.07C106.31-7.07 106.78-6.96 107.11-6.76C107.44-6.55 107.60-6.18 107.60-5.66C107.60-5.15 107.44-4.77 107.11-4.52C106.78-4.27 106.31-4.14 105.70-4.14ZM107.70 0L108.83 0L106.84-3.43C107.37-3.57 107.80-3.82 108.12-4.19C108.44-4.56 108.60-5.05 108.60-5.66C108.60-6.07 108.53-6.42 108.40-6.70C108.26-6.98 108.07-7.20 107.83-7.38C107.58-7.56 107.29-7.68 106.95-7.76C106.61-7.83 106.24-7.87 105.84-7.87L103.38-7.87L103.38 0L104.38 0L104.38-3.32L105.80-3.32ZM110.35-7.87L110.35 0L115.01 0L115.01-0.85L111.35-0.85L111.35-3.71L114.34-3.71L114.34-4.56L111.35-4.56L111.35-7.03L114.89-7.03L114.89-7.87ZM116.64-7.87L116.64-3.25C116.64-2.62 116.71-2.09 116.86-1.66C117-1.22 117.20-0.87 117.45-0.61C117.70-0.34 118.00-0.15 118.35-0.03C118.70 0.09 119.07 0.14 119.47 0.14C119.87 0.14 120.24 0.09 120.59-0.03C120.93-0.15 121.23-0.34 121.48-0.61C121.73-0.87 121.93-1.22 122.08-1.66C122.22-2.09 122.29-2.62 122.29-3.25L122.29-7.87L121.33-7.87L121.33-3.23C121.33-2.76 121.28-2.36 121.19-2.04C121.09-1.72 120.96-1.46 120.79-1.27C120.62-1.08 120.43-0.94 120.20-0.86C119.98-0.77 119.74-0.73 119.47-0.73C119.22-0.73 118.98-0.77 118.75-0.86C118.53-0.94 118.33-1.08 118.17-1.27C118.01-1.46 117.88-1.72 117.78-2.04C117.68-2.36 117.64-2.76 117.64-3.23L117.64-7.87ZM124.42-7.87L124.42 0L125.34 0L125.34-4.33C125.34-4.68 125.32-5.07 125.29-5.50C125.26-5.92 125.23-6.31 125.21-6.66L125.26-6.66L125.88-4.91L127.40-0.79L127.97-0.79L129.48-4.91L130.12-6.66L130.16-6.66C130.13-6.31 130.10-5.92 130.07-5.50C130.05-5.07 130.03-4.68 130.03-4.33L130.03 0L130.98 0L130.98-7.87L129.80-7.87L128.29-3.65L127.74-2.04L127.69-2.04L127.12-3.65L125.59-7.87Z" transform="translate(-1.08, 8.016)"></path></g></g></g></g></g></g></g></g><mask id="cbb95116-1dea-4520-b9b5-57874b4c60f2"><g fill="white"><rect data-gra="graph-name-bg" stroke-width="2" class="i-icon-bg" x="0" y="0" width="49.83222961425781" height="72.0060043334961" fill-opacity="1"></rect>   </g> <g transform="translate(5,12.995615005493164)" fill="black"><g class="iconsvg-imagesvg"><g> <svg x="0" y="0" width="39.832228385874714" height="46.014773330570115" class="image-svg-svg primary" style="overflow: visible;" filter="url(#colorsb4496554443)"><svg xmlns="http://www.w3.org/2000/svg" viewBox="0 0.2999999999999998 76.8 88.10001"><path d="M2 23.3l36.4-21 36.4 21v42l-36.4 21L2 65.4V23.3zm9.4 47.5l27 15.6 27-15.6V39.7l-27-15.6-27 15.6v31.1zm8.8 5.1l18.2 10.5 18.2-10.5v-21L38.4 44.5 20.2 54.9v21z" fill="none" stroke="#202121" stroke-width="4" stroke-miterlimit="10"></path></svg></svg> <defs>  </defs></g></g></g></mask><defs v-gra="od"></defs></svg>